<svg width="128" height="128" xmlns="http://www.w3.org/2000/svg">

 <title/>
 <g>
  <title>background</title>
  <rect fill="none" id="canvas_background" height="402" width="582" y="-1" x="-1"/>
 </g>
 <g>
  <title>Layer 1</title>
  <path stroke-width="6.5px" stroke-miterlimit="10" fill="#ffffff" id="svg_1" d="m16.638159,114l42.8,0l0,-16.58l-9.63,0l0,-36.89l28.7,0l0,36.89l-9.75,0l0,16.58l42.22,0l0,-16.58l-9.43,0l0,-52.81l-52.29,0s-2.9,-10.85 10.18,-10.85l5.79,0l0,-18l-9.76,0c-7.29,0 -29.36,0.35 -29.36,28.85l-9.47,0l0,15.92l9.26,0l0,36.89l-9.26,0l0,16.58z" class="cls-1"/>
  <path stroke-width="6.5px" stroke-miterlimit="10" fill="#ffffff" id="svg_2" d="m101.74,25.57a11.52,11.52 0 1 1 -11.57,-11.57a11.57,11.57 0 0 1 11.57,11.57z" class="cls-1"/>
 </g>
</svg>